<svg id="visual" viewBox="0 0 900 600" width="900" height="600" xmlns="http://www.w3.org/2000/svg" xmlns:xlink="http://www.w3.org/1999/xlink" version="1.1"><rect x="0" y="0" width="900" height="600" fill="#001220"></rect><path d="M0 409L21.5 410.3C43 411.7 86 414.3 128.8 416C171.7 417.7 214.3 418.3 257.2 416.3C300 414.3 343 409.7 385.8 398.7C428.7 387.7 471.3 370.3 514.2 370.7C557 371 600 389 642.8 402.7C685.7 416.3 728.3 425.7 771.2 428C814 430.3 857 425.7 878.5 423.3L900 421L900 601L878.5 601C857 601 814 601 771.2 601C728.3 601 685.7 601 642.8 601C600 601 557 601 514.2 601C471.3 601 428.7 601 385.8 601C343 601 300 601 257.2 601C214.3 601 171.7 601 128.8 601C86 601 43 601 21.5 601L0 601Z" fill="#fa7268"></path><path d="M0 424L21.5 424.7C43 425.3 86 426.7 128.8 434.2C171.7 441.7 214.3 455.3 257.2 455.3C300 455.3 343 441.7 385.8 437.5C428.7 433.3 471.3 438.7 514.2 433.7C557 428.7 600 413.3 642.8 417C685.7 420.7 728.3 443.3 771.2 448.7C814 454 857 442 878.5 436L900 430L900 601L878.5 601C857 601 814 601 771.2 601C728.3 601 685.7 601 642.8 601C600 601 557 601 514.2 601C471.3 601 428.7 601 385.8 601C343 601 300 601 257.2 601C214.3 601 171.7 601 128.8 601C86 601 43 601 21.5 601L0 601Z" fill="#ef5f67"></path><path d="M0 467L21.5 463.2C43 459.3 86 451.7 128.8 454C171.7 456.3 214.3 468.7 257.2 469.2C300 469.7 343 458.3 385.8 454.3C428.7 450.3 471.3 453.7 514.2 462.2C557 470.7 600 484.3 642.8 485.3C685.7 486.3 728.3 474.7 771.2 475.2C814 475.7 857 488.3 878.5 494.7L900 501L900 601L878.5 601C857 601 814 601 771.2 601C728.3 601 685.7 601 642.8 601C600 601 557 601 514.2 601C471.3 601 428.7 601 385.8 601C343 601 300 601 257.2 601C214.3 601 171.7 601 128.8 601C86 601 43 601 21.5 601L0 601Z" fill="#e34c67"></path><path d="M0 521L21.5 514.7C43 508.3 86 495.7 128.8 497.2C171.7 498.7 214.3 514.3 257.2 519.5C300 524.7 343 519.3 385.8 519.5C428.7 519.7 471.3 525.3 514.2 526.8C557 528.3 600 525.7 642.8 521.3C685.7 517 728.3 511 771.2 508.7C814 506.3 857 507.7 878.5 508.3L900 509L900 601L878.5 601C857 601 814 601 771.2 601C728.3 601 685.7 601 642.8 601C600 601 557 601 514.2 601C471.3 601 428.7 601 385.8 601C343 601 300 601 257.2 601C214.3 601 171.7 601 128.8 601C86 601 43 601 21.5 601L0 601Z" fill="#d53867"></path><path d="M0 567L21.5 563.5C43 560 86 553 128.8 551.8C171.7 550.7 214.3 555.3 257.2 558.8C300 562.3 343 564.7 385.8 560C428.7 555.3 471.3 543.7 514.2 543C557 542.3 600 552.7 642.8 553.2C685.7 553.7 728.3 544.3 771.2 543C814 541.7 857 548.3 878.5 551.7L900 555L900 601L878.5 601C857 601 814 601 771.2 601C728.3 601 685.7 601 642.8 601C600 601 557 601 514.2 601C471.3 601 428.7 601 385.8 601C343 601 300 601 257.2 601C214.3 601 171.7 601 128.8 601C86 601 43 601 21.5 601L0 601Z" fill="#c62368"></path></svg>